<!-- icon666.com - MILLIONS vector ICONS FREE --><svg version="1.1" id="Capa_1" xmlns="http://www.w3.org/2000/svg" xmlns:xlink="http://www.w3.org/1999/xlink" x="0px" y="0px" viewBox="0 0 573.407 573.407" style="enable-background:new 0 0 573.407 573.407;" xml:space="preserve"><g><path d="M524.281,126.219c-8.519-12.601-26.781-27.62-65.447-27.62c-22.943,0-50.44,5.361-80.441,15.196 C359.445,47.424,328.533,0,286.702,0c-41.83,0-72.742,47.424-91.69,113.795c-30-9.835-57.498-15.196-80.441-15.196 c-38.666,0-56.934,15.019-65.447,27.62c-13.39,19.829-19.437,56.916,27.834,121.023c9.651,13.091,20.937,26.389,33.531,39.694 c-56.292,59.597-87.822,121.085-61.365,160.253c8.519,12.601,26.775,27.619,65.441,27.619c22.944,0,50.447-5.361,80.447-15.202 c18.948,66.378,49.86,113.802,91.69,113.802c41.831,0,72.743-47.431,91.69-113.796c30.001,9.835,57.504,15.196,80.448,15.202 c0,0,0,0,0.006,0c38.66,0,56.922-15.019,65.435-27.619c26.457-39.162-5.073-100.655-61.365-160.252 c12.596-13.305,23.881-26.61,33.531-39.695C543.718,183.141,537.677,146.047,524.281,126.219z M358.325,197.994 c-2.656-1.842-5.306-3.69-7.98-5.496c-8.586-5.802-17.222-11.315-25.869-16.665c9.578-4.725,19.027-9.088,28.317-13.06 C354.904,173.869,356.764,185.625,358.325,197.994z M400.302,277.009c3.666,3.213,7.252,6.414,10.704,9.59 c-3.501,3.231-7.051,6.45-10.704,9.663c0.043-3.188,0.086-6.377,0.086-9.56C400.388,283.478,400.345,280.241,400.302,277.009z M363.667,286.703c0,13.923-0.373,27.345-1.059,40.282c-10.557,7.999-21.512,15.856-32.827,23.501 c-14.248,9.627-28.685,18.61-43.08,26.909c-14.394-8.299-28.832-17.289-43.079-26.909c-11.316-7.645-22.271-15.502-32.828-23.501 c-0.686-12.932-1.059-26.353-1.059-40.282c0-13.941,0.38-27.38,1.059-40.324c10.343-7.815,21.273-15.649,32.828-23.452 c14.247-9.626,28.685-18.611,43.079-26.91c14.395,8.299,28.832,17.289,43.08,26.91c11.554,7.803,22.479,15.637,32.827,23.452 C363.294,259.323,363.667,272.762,363.667,286.703z M352.787,410.634c-9.284-3.973-18.739-8.336-28.317-13.061 c8.647-5.349,17.283-10.863,25.869-16.665c2.687-1.817,5.33-3.653,7.98-5.495C356.764,387.787,354.904,399.544,352.787,410.634z M215.08,375.419c2.65,1.836,5.294,3.678,7.98,5.496c8.586,5.802,17.222,11.315,25.87,16.664 c-9.578,4.725-19.027,9.082-28.317,13.061C218.501,399.544,216.64,387.787,215.08,375.419z M173.103,296.263 c-3.653-3.213-7.203-6.432-10.704-9.663c3.458-3.176,7.038-6.377,10.704-9.59c-0.042,3.231-0.085,6.469-0.085,9.694 C173.017,289.886,173.06,293.074,173.103,296.263z M220.618,162.773c9.284,3.972,18.74,8.335,28.317,13.06 c-8.647,5.349-17.283,10.863-25.869,16.665c-2.674,1.806-5.331,3.654-7.98,5.496C216.64,185.625,218.501,173.869,220.618,162.773z M286.702,36.72c18.709,0,41.702,32.277,57.664,89.756c-18.74,7.742-38.079,16.91-57.664,27.46 c-19.584-10.551-38.923-19.718-57.663-27.46C245,68.997,267.993,36.72,286.702,36.72z M106.517,225.455 C75.69,183.649,72.38,157.4,79.559,146.776c6.732-9.963,24.829-11.457,35.019-11.457c19.866,0,44.505,5.061,71.745,14.247 c-5.08,24.737-8.721,51.114-10.894,78.018c-13.556,10.844-26.585,22.068-38.862,33.507 C125.269,249.114,115.159,237.174,106.517,225.455z M114.565,438.088c-10.184,0-28.281-1.487-35.013-11.457 c-11.701-17.313,6.946-61.585,56.671-114.26c12.234,11.358,25.349,22.607,39.211,33.623c2.172,26.842,5.808,53.164,10.881,77.847 C159.076,433.026,134.431,438.088,114.565,438.088z M286.702,536.688c-18.709,0-41.695-32.277-57.663-89.757 c18.739-7.741,38.079-16.903,57.663-27.454c19.584,10.551,38.923,19.719,57.664,27.461 C328.404,504.416,305.412,536.688,286.702,536.688z M493.852,426.638c-6.731,9.963-24.822,11.456-35.006,11.456 c-0.006,0-0.006,0-0.006,0c-19.872,0-44.512-5.062-71.751-14.247c5.067-24.682,8.708-51.004,10.881-77.847 c13.862-11.016,26.978-22.265,39.211-33.623C486.906,365.052,505.547,409.317,493.852,426.638z M436.844,261.091 c-12.276-11.438-25.306-22.663-38.861-33.507c-2.173-26.903-5.814-53.28-10.894-78.018c27.24-9.186,51.879-14.247,71.744-14.247 c10.19,0,28.287,1.487,35.019,11.457c7.179,10.624,3.868,36.873-26.958,78.679C458.247,237.174,448.136,249.114,436.844,261.091z"/><circle cx="286.702" cy="286.703" r="31.622"/></g></svg>